<svg width="160" height="36" viewBox="0 0 160 36" fill="none" xmlns="http://www.w3.org/2000/svg">
<path d="M0.420903 29.7739L14.2197 2.18458C14.5526 1.51832 15.067 0.959741 15.7037 0.573297C16.3404 0.186853 17.0733 -0.011705 17.818 0.000533468V0.000533468C18.4865 0.0114113 19.1413 0.191808 19.721 0.524823C20.3008 0.857837 20.7865 1.33257 21.1327 1.90454C21.4789 2.47652 21.6742 3.12701 21.7004 3.79509C21.7266 4.46316 21.5827 5.12694 21.2823 5.72425L7.52534 33.3136C7.19611 33.9702 6.69064 34.5223 6.06551 34.908C5.44037 35.2937 4.72023 35.4979 3.98567 35.4976V35.4976C3.30866 35.5038 2.64143 35.3358 2.04803 35.0098C1.45463 34.6839 0.954985 34.2108 0.597061 33.6361C0.239137 33.0614 0.0349506 32.4044 0.00410252 31.728C-0.0267456 31.0517 0.116781 30.3788 0.420903 29.7739V29.7739Z" fill="white"/>
<path d="M22.9894 11.1553L13.6842 29.7741C13.3838 30.3767 13.2422 31.046 13.2726 31.7186C13.303 32.3913 13.5045 33.045 13.8581 33.618C14.2116 34.1911 14.7055 34.6645 15.293 34.9934C15.8805 35.3223 16.5422 35.4959 17.2155 35.4978V35.4978C17.9501 35.4981 18.6702 35.294 19.2953 34.9082C19.9205 34.5225 20.4259 33.9704 20.7552 33.3138L30.0688 14.6866C30.3694 14.0834 30.5111 13.4133 30.4803 12.74C30.4495 12.0667 30.2472 11.4124 29.8927 10.8391C29.5382 10.2659 29.0431 9.79264 28.4545 9.4643C27.8659 9.13595 27.2031 8.96336 26.5291 8.96289V8.96289C25.7939 8.96436 25.0735 9.17016 24.4485 9.55731C23.8234 9.94445 23.3183 10.4977 22.9894 11.1553Z" fill="white"/>
<path d="M26.9474 29.7738L29.9766 23.7656C30.3058 23.1089 30.8113 22.5569 31.4364 22.1712C32.0616 21.7854 32.7817 21.5813 33.5163 21.5815C34.1903 21.582 34.853 21.7546 35.4417 22.0829C36.0303 22.4113 36.5253 22.8845 36.8799 23.4578C37.2344 24.031 37.4366 24.6853 37.4674 25.3587C37.4982 26.032 37.3566 26.702 37.0559 27.3053L34.0183 33.3135C33.6913 33.9701 33.1875 34.5224 32.5636 34.9082C31.9398 35.2941 31.2206 35.4982 30.487 35.4975C29.813 35.4971 29.1503 35.3245 28.5616 34.9961C27.973 34.6678 27.478 34.1946 27.1235 33.6213C26.7689 33.048 26.5667 32.3937 26.5359 31.7204C26.5051 31.0471 26.6467 30.3771 26.9474 29.7738Z" fill="url(#paint0_linear_106_29)"/>
<path d="M55.1225 19.1885C54.9802 19.6237 54.838 20.0253 54.7124 20.36C54.6019 20.6761 54.447 20.9747 54.2522 21.247C54.0855 21.4808 53.8643 21.6704 53.6079 21.7993C53.3111 21.9433 52.9835 22.0122 52.6539 22.0002C52.3652 22.0065 52.0789 21.9464 51.8171 21.8244C51.5694 21.7174 51.3428 21.5673 51.1477 21.3809C50.9586 21.2009 50.8077 20.9846 50.7042 20.745C50.6011 20.5308 50.5468 20.2965 50.5452 20.0588C50.5364 19.9083 50.5364 19.7574 50.5452 19.6069C50.5637 19.4513 50.5944 19.2974 50.6372 19.1467C50.6874 18.9793 50.746 18.7869 50.8213 18.5777C50.8966 18.3685 50.997 18.1007 51.1226 17.7827L54.8129 8.25154C55.0248 7.69367 55.2089 7.22506 55.3651 6.84571C55.5213 6.46636 55.672 6.13722 55.817 5.85829C55.9284 5.61359 56.0689 5.3832 56.2354 5.17211C56.3781 4.99977 56.5411 4.84524 56.7208 4.71187C56.9823 4.53101 57.2629 4.37947 57.5576 4.26C57.9149 4.13382 58.2916 4.07151 58.6705 4.0759C59.3695 4.07978 60.0514 4.29251 60.6286 4.68677C60.8254 4.81124 60.9983 4.96995 61.1391 5.15537C61.3075 5.37439 61.4533 5.60989 61.5742 5.85829C61.7436 6.18425 61.8944 6.5195 62.0261 6.86245L62.57 8.26827L66.2686 17.6823C66.3858 17.9919 66.4862 18.2513 66.5615 18.4689C66.6368 18.6864 66.7122 18.8789 66.7707 19.0546C66.8225 19.2074 66.8617 19.3641 66.8879 19.5232C66.9007 19.6764 66.9007 19.8303 66.8879 19.9835C66.8822 20.2233 66.8281 20.4596 66.7289 20.678C66.6182 20.9141 66.4714 21.1315 66.2938 21.3224C66.0978 21.5202 65.8683 21.6817 65.6159 21.7993C65.3227 21.9317 65.0047 22.0002 64.6829 22.0002C64.3612 22.0002 64.0431 21.9317 63.7499 21.7993C63.4914 21.6664 63.2656 21.4777 63.0888 21.247C62.8884 20.9756 62.7277 20.6769 62.6118 20.36C62.4696 20.017 62.3273 19.6153 62.1851 19.1634L61.8922 18.3266H55.4153L55.1225 19.1885ZM58.6621 8.59462L56.5283 14.9961H60.8211L58.6621 8.59462Z" fill="white"/>
<path d="M70.8795 7.65735C70.6807 7.65873 70.4821 7.64474 70.2854 7.61551C70.1375 7.60515 69.9914 7.57706 69.8503 7.53183C69.6906 7.46558 69.539 7.38135 69.3984 7.28079C69.2402 7.16158 69.1161 7.00285 69.0386 6.82054C68.9225 6.58682 68.865 6.32833 68.8712 6.06742C68.8406 5.69619 68.9413 5.326 69.1557 5.02142C69.3412 4.79642 69.5841 4.62581 69.8586 4.52771C70.1487 4.42496 70.4546 4.37398 70.7624 4.37709H79.8919H81.0132C81.2597 4.38071 81.5056 4.40028 81.7496 4.43566C81.9276 4.4636 82.1 4.52012 82.26 4.60302C82.4137 4.69887 82.5543 4.81419 82.6784 4.94611C82.8842 5.14204 83.047 5.3786 83.1564 5.64078C83.2659 5.90295 83.3197 6.18502 83.3144 6.46909C83.3135 6.63258 83.2938 6.79542 83.2558 6.95443C83.2035 7.12333 83.1274 7.28392 83.0299 7.43141C82.9034 7.63298 82.7637 7.82588 82.6115 8.0088C82.4358 8.22637 82.1931 8.49415 81.9086 8.8456L73.4736 18.4102H81.0048C81.6157 18.4102 82.0927 18.4102 82.419 18.4604C82.7351 18.4843 83.032 18.6209 83.2558 18.8454C83.3985 18.9933 83.5171 19.1628 83.6073 19.3475C83.7194 19.5674 83.7741 19.812 83.7663 20.0587C83.7667 20.2823 83.7241 20.504 83.6407 20.7114C83.5552 20.9317 83.424 21.1313 83.2558 21.2972C83.0308 21.5198 82.7345 21.6561 82.419 21.6821C82.0787 21.7156 81.6101 21.7323 81.0132 21.7323H71.8753H70.6034C70.3232 21.7301 70.0436 21.7077 69.7666 21.6654C69.5602 21.6305 69.3601 21.5656 69.1725 21.4729C68.9978 21.3686 68.8375 21.2421 68.6955 21.0964C68.4559 20.8583 68.2679 20.5735 68.1432 20.2596C68.0263 19.961 67.9667 19.643 67.9675 19.3223C67.9625 19.1304 67.985 18.9388 68.0344 18.7533C68.0945 18.5606 68.1819 18.3774 68.2938 18.2094C68.4413 17.9772 68.6093 17.7588 68.7959 17.5567C69.0218 17.314 69.2896 17.0044 69.6327 16.6362L77.5405 7.67408H71.6327L70.8795 7.65735Z" fill="white"/>
<path d="M87.0214 7.6573C86.831 7.65742 86.6408 7.64343 86.4524 7.61546C86.3045 7.6051 86.1584 7.57701 86.0173 7.53178C85.8576 7.46553 85.706 7.3813 85.5654 7.28074C85.4072 7.16153 85.2831 7.00281 85.2056 6.8205C85.0894 6.58677 85.032 6.32828 85.0382 6.06738C85.0148 5.69311 85.1245 5.32262 85.3478 5.02138C85.5318 4.79479 85.7752 4.62384 86.0507 4.52766C86.3381 4.42554 86.6412 4.37457 86.9461 4.37704H96.0589H97.1802C97.4267 4.38066 97.6726 4.40023 97.9166 4.43562C98.0946 4.46355 98.267 4.52007 98.427 4.60298C98.5807 4.69882 98.7213 4.81414 98.8454 4.94606C99.0512 5.142 99.2139 5.37855 99.3234 5.64073C99.4329 5.90291 99.4867 6.18497 99.4814 6.46904C99.4821 6.63317 99.4595 6.79657 99.4144 6.95439C99.369 7.12437 99.2954 7.28558 99.1969 7.43136C99.0704 7.63293 98.9307 7.82583 98.7785 8.00875L98.0756 8.84555L89.6406 18.4102H97.1718C97.7827 18.4102 98.2513 18.4102 98.586 18.4604C98.9021 18.4843 99.199 18.6209 99.4228 18.8453C99.5628 18.9955 99.6811 19.1645 99.7743 19.3474C99.8864 19.5673 99.9411 19.812 99.9333 20.0587C99.9337 20.2823 99.8911 20.5039 99.8077 20.7114C99.7222 20.9316 99.591 21.1313 99.4228 21.2971C99.1978 21.5198 98.9015 21.6561 98.586 21.6821C98.2401 21.7155 97.7715 21.7323 97.1802 21.7323H88.0423H86.7704C86.4902 21.73 86.2106 21.7076 85.9336 21.6653C85.7272 21.6304 85.5271 21.5656 85.3395 21.4729C85.1636 21.3667 85.0007 21.2403 84.8541 21.0963C84.622 20.8687 84.4386 20.5963 84.3149 20.2957C84.1912 19.9951 84.1298 19.6724 84.1345 19.3474C84.1295 19.1555 84.152 18.9639 84.2014 18.7784C84.2615 18.5856 84.3489 18.4025 84.4608 18.2345C84.6083 18.0023 84.7763 17.7838 84.9629 17.5818C85.1888 17.3391 85.4566 17.0295 85.7997 16.6613L93.7158 7.67403H87.808L87.0214 7.6573Z" fill="white"/>
<path d="M106.36 20.1926C106.327 20.6082 106.149 20.9991 105.858 21.2972C105.664 21.4923 105.441 21.656 105.197 21.7826C104.899 21.9327 104.568 22.0074 104.234 22.0001C103.924 22.0098 103.614 21.9545 103.326 21.8378C103.038 21.7211 102.777 21.5455 102.561 21.3223C102.263 21.0173 102.083 20.6174 102.05 20.1926C101.993 19.5668 101.968 18.9383 101.975 18.3098V7.74942C101.978 7.11755 102.014 6.48627 102.084 5.85825C102.12 5.44176 102.3 5.051 102.594 4.75367C102.789 4.56755 103.008 4.4098 103.247 4.28507C103.545 4.12545 103.879 4.04479 104.218 4.05076C104.529 4.04163 104.839 4.09798 105.127 4.21619C105.416 4.33439 105.676 4.5118 105.891 4.73694C106.183 5.04808 106.36 5.44955 106.393 5.87499C106.451 6.49527 106.476 7.11814 106.469 7.74105V18.3098C106.466 18.9389 106.429 19.5674 106.36 20.1926V20.1926Z" fill="white"/>
<path d="M121.146 14.9459V7.53183C121.138 6.93955 121.163 6.34729 121.221 5.75781C121.256 5.36561 121.428 4.9982 121.707 4.72018C121.884 4.54669 122.084 4.39755 122.301 4.27667C122.578 4.1266 122.89 4.0516 123.205 4.05911C123.493 4.05992 123.777 4.11973 124.041 4.23483C124.31 4.34194 124.557 4.49799 124.769 4.69508C125.047 4.98202 125.214 5.35898 125.238 5.75781C125.28 6.19295 125.297 6.78708 125.297 7.53183V17.5734C125.297 18.1508 125.297 18.6362 125.297 19.0211C125.294 19.3609 125.26 19.6998 125.196 20.0336C125.152 20.2867 125.064 20.5302 124.937 20.7533C124.794 20.9787 124.616 21.1793 124.41 21.3474C124.203 21.5104 123.982 21.6533 123.749 21.7742C123.396 21.9426 123.009 22.023 122.619 22.0085C122.308 22.0152 121.999 21.9641 121.707 21.8579C121.441 21.7531 121.2 21.5967 120.995 21.3976C120.731 21.1451 120.496 20.8645 120.293 20.5608C120.05 20.2177 119.765 19.791 119.456 19.2889L114.293 11.2974V18.5609C114.293 18.9374 114.293 19.2638 114.293 19.5567C114.289 19.8114 114.269 20.0657 114.234 20.3181C114.207 20.5196 114.154 20.7165 114.075 20.9039C114.002 21.0688 113.9 21.2191 113.774 21.3474C113.593 21.53 113.384 21.6825 113.155 21.7993C112.875 21.9426 112.565 22.0145 112.251 22.0085C111.965 22.0052 111.681 21.9514 111.414 21.8495C111.146 21.7464 110.906 21.5832 110.711 21.3725C110.437 21.0814 110.266 20.7078 110.226 20.3098C110.168 19.7287 110.143 19.1448 110.15 18.5609V8.42721C110.15 7.85818 110.15 7.3812 110.15 6.99628C110.153 6.66197 110.187 6.32864 110.251 6.00048C110.293 5.75223 110.381 5.51395 110.51 5.29757C110.658 5.08101 110.835 4.88658 111.038 4.72018C111.232 4.55288 111.445 4.4096 111.673 4.29341C112.302 4.0128 113.015 3.98287 113.665 4.20973C113.93 4.31446 114.172 4.47091 114.376 4.66997C114.634 4.92208 114.861 5.20285 115.054 5.50677L115.891 6.74524L121.171 14.9626" fill="white"/>
<path d="M139.589 10.9711C140.175 10.9711 140.627 10.9711 140.953 11.0213C141.27 11.0414 141.568 11.1786 141.79 11.4063C141.926 11.5455 142.041 11.7032 142.133 11.8749C142.247 12.0974 142.305 12.3445 142.3 12.5945C142.301 12.817 142.256 13.0373 142.169 13.2417C142.081 13.4461 141.952 13.6303 141.79 13.7828C141.566 14.0072 141.269 14.1438 140.953 14.1677C140.627 14.1677 140.175 14.2179 139.606 14.2179H133.455V18.268H140.384C140.865 18.2607 141.345 18.2803 141.823 18.3266C142.14 18.3625 142.434 18.504 142.66 18.7283C142.811 18.8755 142.938 19.0448 143.037 19.2303C143.165 19.4601 143.229 19.7204 143.221 19.9835C143.223 20.2195 143.176 20.4535 143.084 20.6708C142.992 20.8882 142.856 21.0843 142.685 21.247C142.459 21.4702 142.164 21.6115 141.849 21.6487C141.489 21.6487 141.012 21.7073 140.393 21.7073H132.761H131.539C131.259 21.7077 130.979 21.6853 130.702 21.6403C130.507 21.6043 130.318 21.5394 130.142 21.4479C129.966 21.3379 129.801 21.2118 129.648 21.0713C129.501 20.9368 129.374 20.7818 129.271 20.6111C129.175 20.4249 129.11 20.2242 129.079 20.0169C129.033 19.7402 129.008 19.4605 129.004 19.1801C129.004 18.8538 129.004 18.4605 129.004 17.9919V8.08416C129.004 7.58208 129.004 7.18041 129.004 6.86243C129.005 6.58188 129.031 6.30197 129.079 6.02563C129.11 5.83166 129.175 5.64471 129.271 5.47334C129.4 5.30999 129.542 5.15873 129.698 5.02147C129.843 4.87555 130.006 4.74898 130.184 4.64491C130.365 4.55215 130.56 4.48727 130.761 4.45244C131.038 4.41317 131.318 4.39082 131.598 4.3855H132.786H140.225C140.819 4.3855 141.288 4.3855 141.614 4.43571C141.93 4.45957 142.227 4.59617 142.451 4.82063C142.595 4.97155 142.718 5.14029 142.819 5.32271C142.934 5.54186 142.992 5.78657 142.987 6.034C142.983 6.49731 142.8 6.94122 142.476 7.27246C142.251 7.4951 141.955 7.63138 141.639 7.65739C141.296 7.65739 140.803 7.7076 140.25 7.7076H133.514V11.0046L139.589 10.9711Z" fill="white"/>
<path d="M145.815 7.9083C145.477 7.88062 145.161 7.72858 144.928 7.48153C144.78 7.3241 144.651 7.14999 144.543 6.96272C144.397 6.70907 144.327 6.4184 144.342 6.12592C144.343 5.88099 144.394 5.63886 144.493 5.41464C144.585 5.18218 144.725 4.97136 144.903 4.7954C145.018 4.66553 145.158 4.56009 145.315 4.48535C145.471 4.4106 145.642 4.36807 145.815 4.36027C146.192 4.36027 146.702 4.31006 147.355 4.31006H156.995C157.639 4.31006 158.149 4.31006 158.526 4.36863C158.867 4.39662 159.185 4.54845 159.421 4.7954C159.569 4.95283 159.698 5.12694 159.806 5.31422C159.943 5.55605 160.01 5.83143 159.999 6.10918C160.001 6.35669 159.953 6.60209 159.858 6.8307C159.763 7.05931 159.623 7.26644 159.446 7.43969C159.198 7.68412 158.873 7.83493 158.526 7.86646C158.149 7.86646 157.639 7.92504 156.995 7.92504H154.375V18.3097C154.385 18.9381 154.363 19.5665 154.308 20.1925C154.272 20.609 154.092 20.9998 153.798 21.2971C153.597 21.4803 153.372 21.6351 153.129 21.7574C152.828 21.9191 152.491 21.9998 152.15 21.9917C151.862 21.9875 151.578 21.9278 151.313 21.8159C151.028 21.7017 150.769 21.5309 150.551 21.3138C150.251 21.0096 150.068 20.6099 150.032 20.1842C149.964 19.559 149.933 18.9302 149.94 18.3014V7.96688H147.355C146.685 7.96688 146.175 7.94177 145.815 7.9083Z" fill="white"/>
<path d="M53.6582 25.3557C54.0847 25.3591 54.5102 25.3983 54.9302 25.4729C54.9547 25.4728 54.979 25.4778 55.0015 25.4876C55.024 25.4975 55.0442 25.512 55.0607 25.5301C55.0773 25.5482 55.0899 25.5696 55.0977 25.5929C55.1054 25.6162 55.1082 25.6409 55.1059 25.6653V26.1674C55.1059 26.3097 55.0306 26.3431 54.9051 26.3348C54.497 26.2821 54.0864 26.2514 53.675 26.2427C51.8591 26.2427 51.3319 26.8536 51.3068 29.3305C51.2817 31.8074 51.834 32.3932 53.675 32.4267C54.0864 32.418 54.497 32.3873 54.9051 32.3346H54.9553C54.9761 32.3332 54.9971 32.3365 55.0165 32.3441C55.036 32.3517 55.0536 32.3636 55.0679 32.3787C55.0823 32.3939 55.0932 32.4121 55.0997 32.4319C55.1063 32.4518 55.1084 32.4729 55.1059 32.4936V32.9957C55.1082 33.0454 55.0913 33.0941 55.0585 33.1315C55.0257 33.169 54.9797 33.1923 54.9302 33.1965C54.5095 33.2647 54.0843 33.301 53.6582 33.3053C51.2399 33.3053 50.311 32.2175 50.311 29.3305C50.311 26.4436 51.2399 25.3557 53.6582 25.3557Z" fill="white"/>
<path d="M58.771 30.3763C58.771 28.3764 59.6078 27.4475 61.2814 27.4475C62.955 27.4475 63.7918 28.3764 63.7918 30.3763C63.7918 32.3763 63.0052 33.3051 61.2814 33.3051C59.5576 33.3051 58.771 32.3763 58.771 30.3763ZM62.8546 30.3763C62.8546 28.778 62.4194 28.2592 61.3065 28.2592C60.1936 28.2592 59.7584 28.778 59.7584 30.3763C59.7584 31.9746 60.1852 32.4934 61.3065 32.4934C62.4278 32.4934 62.8546 31.983 62.8546 30.3763V30.3763Z" fill="white"/>
<path d="M72.7957 29.4558V32.9871C72.8001 33.0123 72.7984 33.0381 72.7907 33.0625C72.783 33.0868 72.7696 33.109 72.7515 33.1271C72.7334 33.1451 72.7113 33.1586 72.6869 33.1662C72.6626 33.1739 72.6367 33.1756 72.6116 33.1712H72.0258C72.0007 33.1756 71.9748 33.1739 71.9504 33.1662C71.9261 33.1586 71.904 33.1451 71.8859 33.1271C71.8678 33.109 71.8544 33.0868 71.8467 33.0625C71.839 33.0381 71.8373 33.0123 71.8417 32.9871V29.5981C71.8417 28.5856 71.5907 28.2592 70.8794 28.2592C70.258 28.2787 69.657 28.4858 69.1556 28.8533V33.0373C69.1583 33.0611 69.1555 33.0851 69.1476 33.1076C69.1398 33.1301 69.1269 33.1506 69.11 33.1675C69.0931 33.1844 69.0727 33.1972 69.0501 33.2051C69.0276 33.213 69.0036 33.2157 68.9799 33.2131H68.3774C68.354 33.2143 68.3306 33.2105 68.3087 33.2021C68.2869 33.1937 68.267 33.1808 68.2504 33.1643C68.2339 33.1477 68.221 33.1278 68.2126 33.106C68.2042 33.0841 68.2004 33.0607 68.2016 33.0373V27.7739C68.2016 27.6483 68.2602 27.5898 68.3941 27.5898H68.9296C68.9548 27.5853 68.9807 27.5871 69.005 27.5947C69.0294 27.6024 69.0515 27.6159 69.0696 27.6339C69.0876 27.652 69.1011 27.6741 69.1088 27.6985C69.1165 27.7229 69.1182 27.7487 69.1137 27.7739V28.0918C69.6785 27.675 70.3616 27.4493 71.0635 27.4475C72.2601 27.4475 72.7957 28.1002 72.7957 29.4558Z" fill="white"/>
<path d="M81.9085 30.4853C81.9085 30.6359 81.8248 30.7029 81.6742 30.7029H78.1178C78.1178 32.0752 78.6785 32.4685 79.9169 32.4685C80.3726 32.4626 80.8266 32.4121 81.2725 32.3179H81.3227C81.4315 32.3179 81.4734 32.3765 81.4734 32.4853V32.912C81.4806 32.9597 81.4689 33.0083 81.4408 33.0474C81.4126 33.0865 81.3702 33.113 81.3227 33.1212C80.8325 33.2219 80.3337 33.2751 79.8332 33.2802C77.9672 33.2802 77.1304 32.4434 77.1304 30.3514C77.1304 28.2594 77.917 27.4226 79.5571 27.4226C81.1972 27.4226 81.9085 28.3598 81.9085 30.4853ZM78.1178 29.9581H80.9629C80.9043 28.7029 80.5027 28.2845 79.5738 28.2845C78.645 28.2845 78.1764 28.7364 78.1178 29.9581Z" fill="white"/>
<path d="M90.1929 32.9454C90.2021 32.9839 90.2021 33.0241 90.1929 33.0626C90.1929 33.1379 90.1427 33.1714 90.0423 33.1714H89.423C89.3796 33.1731 89.3365 33.1632 89.2982 33.1426C89.2599 33.1219 89.2279 33.0914 89.2055 33.0542L87.8582 31.0543L86.5026 33.0542C86.4801 33.0914 86.4481 33.1219 86.4098 33.1426C86.3716 33.1632 86.3285 33.1731 86.285 33.1714H85.6574C85.557 33.1714 85.5068 33.1714 85.5068 33.0626C85.4976 33.0241 85.4976 32.9839 85.5068 32.9454L87.2976 30.3346L85.557 27.8242C85.5467 27.7858 85.5467 27.7454 85.557 27.7071C85.557 27.6401 85.557 27.6066 85.7076 27.6066H86.3101C86.3536 27.6049 86.3967 27.6148 86.4349 27.6355C86.4732 27.6561 86.5053 27.6866 86.5277 27.7238L87.8666 29.6317L89.172 27.7238C89.1944 27.6866 89.2265 27.6561 89.2647 27.6355C89.303 27.6148 89.3461 27.6049 89.3896 27.6066H90.0088C90.1092 27.6066 90.1594 27.6401 90.1594 27.7071C90.1658 27.7458 90.1658 27.7854 90.1594 27.8242L88.4272 30.3346L90.1929 32.9454Z" fill="white"/>
<path d="M94.2095 25.7741C94.2084 25.7481 94.2125 25.7222 94.2217 25.6979C94.2309 25.6735 94.2449 25.6513 94.2629 25.6326C94.2808 25.6138 94.3024 25.5989 94.3264 25.5887C94.3503 25.5785 94.376 25.5732 94.402 25.5733H95.0463C95.073 25.5704 95.1001 25.5737 95.1253 25.5829C95.1505 25.5921 95.1733 25.607 95.1919 25.6264C95.2105 25.6458 95.2244 25.6692 95.2325 25.6948C95.2406 25.7204 95.2428 25.7475 95.2388 25.7741V26.4268C95.24 26.4524 95.2358 26.4779 95.2266 26.5018C95.2173 26.5257 95.2032 26.5474 95.1851 26.5655C95.167 26.5837 95.1453 26.5978 95.1214 26.607C95.0975 26.6163 95.0719 26.6205 95.0463 26.6193H94.402C94.3516 26.6172 94.3038 26.5963 94.2682 26.5606C94.2325 26.525 94.2116 26.4772 94.2095 26.4268V25.7741ZM94.4187 33.1714C94.395 33.1741 94.371 33.1714 94.3485 33.1635C94.3259 33.1556 94.3055 33.1427 94.2886 33.1258C94.2717 33.109 94.2588 33.0885 94.251 33.066C94.2431 33.0434 94.2403 33.0194 94.243 32.9957V27.774C94.2386 27.7489 94.2403 27.723 94.248 27.6987C94.2557 27.6743 94.2691 27.6522 94.2872 27.6341C94.3052 27.6161 94.3274 27.6026 94.3517 27.5949C94.3761 27.5872 94.4019 27.5855 94.4271 27.59H95.0129C95.038 27.5855 95.0639 27.5872 95.0882 27.5949C95.1126 27.6026 95.1347 27.6161 95.1528 27.6341C95.1709 27.6522 95.1843 27.6743 95.192 27.6987C95.1997 27.723 95.2014 27.7489 95.197 27.774V32.9957C95.1996 33.0194 95.1969 33.0434 95.189 33.066C95.1811 33.0885 95.1683 33.109 95.1514 33.1258C95.1345 33.1427 95.114 33.1556 95.0915 33.1635C95.069 33.1714 95.045 33.1741 95.0212 33.1714H94.4187Z" fill="white"/>
<path d="M99.5735 30.3764C99.5735 28.3765 100.41 27.4476 102.084 27.4476C103.757 27.4476 104.594 28.3765 104.594 30.3764C104.594 32.3764 103.757 33.3052 102.084 33.3052C100.41 33.3052 99.5735 32.3764 99.5735 30.3764ZM103.657 30.3764C103.657 28.7781 103.222 28.2593 102.109 28.2593C100.996 28.2593 100.561 28.7781 100.561 30.3764C100.561 31.9747 100.996 32.4935 102.109 32.4935C103.222 32.4935 103.665 31.9831 103.665 30.3764H103.657ZM100.937 26.092C100.936 26.0615 100.943 26.0313 100.96 26.0057C100.977 25.9801 101.001 25.9604 101.03 25.9497L103.155 25.2468H103.205C103.264 25.2468 103.297 25.2468 103.297 25.3556V25.9414C103.302 25.9713 103.295 26.0019 103.278 26.0269C103.261 26.0518 103.235 26.0692 103.205 26.0753L101.071 26.7112H101.013C100.954 26.7112 100.937 26.7112 100.937 26.6108V26.092Z" fill="white"/>
<path d="M113.607 29.4558V32.9871C113.611 33.0123 113.609 33.0381 113.602 33.0625C113.594 33.0868 113.58 33.109 113.562 33.1271C113.544 33.1451 113.522 33.1586 113.498 33.1662C113.473 33.1739 113.448 33.1756 113.422 33.1712H112.845C112.82 33.1756 112.794 33.1739 112.77 33.1662C112.745 33.1586 112.723 33.1451 112.705 33.1271C112.687 33.109 112.674 33.0868 112.666 33.0625C112.658 33.0381 112.657 33.0123 112.661 32.9871V29.5981C112.661 28.5856 112.402 28.2592 111.69 28.2592C111.086 28.2861 110.503 28.493 110.017 28.8533V33.0373C110.018 33.0607 110.014 33.0841 110.006 33.106C109.997 33.1278 109.984 33.1477 109.968 33.1643C109.951 33.1808 109.931 33.1937 109.91 33.2021C109.888 33.2105 109.864 33.2143 109.841 33.2131H109.23C109.207 33.2144 109.184 33.2107 109.162 33.2022C109.141 33.1938 109.122 33.1807 109.106 33.164C109.09 33.1473 109.078 33.1273 109.07 33.1054C109.063 33.0835 109.06 33.0603 109.063 33.0373V27.7739C109.058 27.7487 109.06 27.7229 109.068 27.6985C109.075 27.6741 109.089 27.652 109.107 27.6339C109.125 27.6159 109.147 27.6024 109.171 27.5947C109.196 27.5871 109.222 27.5853 109.247 27.5898H109.782C109.808 27.5853 109.833 27.5871 109.858 27.5947C109.882 27.6024 109.904 27.6159 109.922 27.6339C109.94 27.652 109.954 27.6741 109.961 27.6985C109.969 27.7229 109.971 27.7487 109.966 27.7739V28.0918C110.533 27.6781 111.215 27.4527 111.916 27.4475C113.079 27.4475 113.607 28.1002 113.607 29.4558Z" fill="white"/>
<path d="M126 32.4518C126.022 32.4493 126.044 32.4516 126.065 32.4586C126.085 32.4656 126.104 32.4771 126.12 32.4922C126.136 32.5074 126.149 32.5259 126.157 32.5463C126.165 32.5668 126.168 32.5888 126.167 32.6108V33.0459C126.169 33.0704 126.167 33.095 126.159 33.1183C126.151 33.1416 126.138 33.163 126.122 33.1811C126.105 33.1993 126.085 33.2137 126.063 33.2236C126.04 33.2335 126.016 33.2385 125.991 33.2384C125.715 33.2872 125.435 33.3096 125.154 33.3053C123.958 33.3053 123.481 32.7949 123.481 31.4058V28.3766H122.711C122.686 28.381 122.66 28.3793 122.636 28.3716C122.611 28.3639 122.589 28.3505 122.571 28.3324C122.553 28.3143 122.54 28.2922 122.532 28.2678C122.524 28.2435 122.523 28.2176 122.527 28.1925V27.7741C122.523 27.7489 122.524 27.7231 122.532 27.6987C122.54 27.6744 122.553 27.6522 122.571 27.6341C122.589 27.6161 122.611 27.6026 122.636 27.595C122.66 27.5873 122.686 27.5856 122.711 27.59H123.481V26.0335C123.481 25.8996 123.539 25.8411 123.665 25.8411H124.251C124.376 25.8411 124.435 25.8996 124.435 26.0335V27.6151H125.874C126.008 27.6151 126.067 27.6737 126.067 27.7992V28.2176C126.067 28.3431 126.008 28.4017 125.874 28.4017H124.435V31.2635C124.435 32.2761 124.611 32.5187 125.322 32.5187C125.534 32.532 125.746 32.532 125.958 32.5187L126 32.4518Z" fill="white"/>
<path d="M129.983 30.3763C129.983 28.3764 130.82 27.4475 132.493 27.4475C134.167 27.4475 135.004 28.3764 135.004 30.3763C135.004 32.3763 134.209 33.3051 132.493 33.3051C130.778 33.3051 129.983 32.3763 129.983 30.3763ZM134.066 30.3763C134.066 28.778 133.631 28.2592 132.518 28.2592C131.405 28.2592 130.97 28.778 130.97 30.3763C130.97 31.9746 131.405 32.4934 132.518 32.4934C133.631 32.4934 134.066 31.983 134.066 30.3763Z" fill="white"/>
<path d="M142.25 32.4518C142.272 32.4491 142.294 32.4513 142.314 32.4583C142.335 32.4654 142.353 32.477 142.369 32.4923C142.384 32.5077 142.396 32.5263 142.403 32.5469C142.41 32.5674 142.412 32.5893 142.409 32.6108V33.0459C142.412 33.0704 142.409 33.095 142.401 33.1183C142.393 33.1416 142.381 33.163 142.364 33.1811C142.348 33.1993 142.327 33.2137 142.305 33.2236C142.282 33.2335 142.258 33.2385 142.234 33.2384C141.957 33.2872 141.677 33.3096 141.397 33.3053C140.2 33.3053 139.723 32.7949 139.723 31.4058V28.3766H138.962C138.828 28.3766 138.769 28.318 138.769 28.1925V27.7741C138.769 27.6486 138.828 27.59 138.962 27.59H139.74V26.0335C139.74 25.8996 139.798 25.8411 139.932 25.8411H140.51C140.635 25.8411 140.694 25.8996 140.694 26.0335V27.6151H142.141C142.167 27.6107 142.192 27.6124 142.217 27.6201C142.241 27.6278 142.263 27.6412 142.281 27.6593C142.299 27.6773 142.313 27.6995 142.321 27.7238C142.328 27.7482 142.33 27.774 142.326 27.7992V28.2176C142.33 28.2427 142.328 28.2686 142.321 28.2929C142.313 28.3173 142.299 28.3394 142.281 28.3575C142.263 28.3756 142.241 28.389 142.217 28.3967C142.192 28.4044 142.167 28.4061 142.141 28.4017H140.66V31.2635C140.66 32.2761 140.836 32.5187 141.547 32.5187C141.759 32.532 141.972 32.532 142.183 32.5187L142.25 32.4518Z" fill="white"/>
<path d="M150.827 29.565V32.9875C150.832 33.0126 150.83 33.0385 150.822 33.0628C150.815 33.0872 150.801 33.1093 150.783 33.1274C150.765 33.1455 150.743 33.1589 150.719 33.1666C150.694 33.1743 150.668 33.176 150.643 33.1716H150.099C149.966 33.1716 149.907 33.113 149.907 32.9875V32.6862C149.38 33.1046 148.722 33.3239 148.049 33.3054C146.844 33.3054 146.175 32.703 146.175 31.5565C146.175 30.4018 146.861 29.8829 148.576 29.8829H148.618C149.038 29.8911 149.457 29.9218 149.873 29.975V29.6319C149.873 28.5524 149.572 28.3014 148.484 28.3014C147.979 28.305 147.474 28.3554 146.978 28.452H146.936C146.828 28.452 146.769 28.4018 146.769 28.293V27.8495C146.769 27.724 146.819 27.657 146.92 27.6403C147.473 27.5483 148.032 27.498 148.593 27.4897C150.2 27.4478 150.827 28.0169 150.827 29.565ZM147.129 31.5565C147.129 32.2176 147.472 32.544 148.2 32.544C148.807 32.5361 149.394 32.3305 149.873 31.9582V30.6612C149.438 30.6076 148.999 30.5824 148.56 30.5858V30.5858C147.547 30.5858 147.171 30.8453 147.171 31.5314L147.129 31.5565Z" fill="white"/>
<path d="M155.589 33.1715C155.565 33.1727 155.542 33.169 155.52 33.1606C155.498 33.1522 155.478 33.1393 155.462 33.1227C155.445 33.1061 155.432 33.0863 155.424 33.0644C155.416 33.0426 155.412 33.0192 155.413 32.9958V25.4646C155.409 25.4394 155.41 25.4136 155.418 25.3892C155.426 25.3648 155.439 25.3427 155.457 25.3246C155.475 25.3066 155.497 25.2931 155.522 25.2855C155.546 25.2778 155.572 25.2761 155.597 25.2805H156.183C156.208 25.2761 156.234 25.2778 156.258 25.2855C156.283 25.2931 156.305 25.3066 156.323 25.3246C156.341 25.3427 156.354 25.3648 156.362 25.3892C156.37 25.4136 156.371 25.4394 156.367 25.4646V32.9958C156.37 33.0195 156.367 33.0435 156.359 33.0661C156.351 33.0886 156.338 33.109 156.321 33.1259C156.305 33.1428 156.284 33.1557 156.262 33.1636C156.239 33.1715 156.215 33.1742 156.191 33.1715H155.589Z" fill="white"/>
<defs>
<linearGradient id="paint0_linear_106_29" x1="26.5206" y1="28.5354" x2="37.4743" y2="28.5354" gradientUnits="userSpaceOnUse">
<stop stop-color="#F6F118"/>
<stop offset="0.14" stop-color="#E5F335"/>
<stop offset="0.56" stop-color="#B5F98B"/>
<stop offset="0.86" stop-color="#96FDC0"/>
<stop offset="1" stop-color="#8AFFD5"/>
</linearGradient>
</defs>
</svg>
